<svg version="1.1" id="Capa_1"  x="0px" y="0px"
	 viewBox="0 0 512 512">
<g>
	<g>
		<path d="M321.895,216.398c-14.165-14.166-32.999-21.967-53.032-21.967s-38.867,7.801-53.033,21.967
			c-14.166,14.166-21.967,33-21.967,53.033c0,20.033,7.801,38.867,21.967,53.032c14.166,14.166,33,21.968,53.033,21.968
			s38.867-7.802,53.032-21.968c14.166-14.165,21.968-32.999,21.968-53.032S336.061,230.564,321.895,216.398z M300.682,301.251
			c-8.499,8.499-19.8,13.181-31.819,13.181c-12.021,0-23.32-4.682-31.82-13.181c-8.499-8.499-13.18-19.8-13.18-31.819
			c0-12.021,4.681-23.32,13.18-31.82c8.5-8.499,19.8-13.18,31.82-13.18c12.02,0,23.32,4.681,31.819,13.18
			c8.499,8.5,13.181,19.8,13.181,31.82C313.863,281.451,309.181,292.752,300.682,301.251z"/>
	</g>
</g>
<g>
	<g>
		<path d="M470.388,407.317l-61.957-61.957V0h-360v61h-20v30h20v30h-20v30h20v30h-20v30h20v30h-20v30h20v30h-20v30h20v30h-20v30h20
			v30h-20v30h20v61h360v-39.445c8.281,7.486,18.894,11.583,30.137,11.583c12.021,0,23.321-4.681,31.82-13.181
			c8.5-8.499,13.181-19.8,13.181-31.82C483.569,427.117,478.888,415.816,470.388,407.317z M148.431,30h230v179.167
			c-5.627-10.196-12.718-19.662-21.181-28.125c-48.736-48.736-128.038-48.736-176.776,0c-15.815,15.815-26.492,34.85-32.043,55.013
			V30z M363.863,269.432c0,25.375-9.882,49.231-27.825,67.175c-17.943,17.944-41.8,27.825-67.175,27.825
			c-25.376,0-49.232-9.882-67.176-27.825c-37.04-37.04-37.04-97.31,0-134.351c18.522-18.522,42.845-27.78,67.176-27.78
			c24.324,0,48.657,9.263,67.175,27.78C353.981,220.199,363.863,244.056,363.863,269.432z M118.431,482h-40v-31h20v-30h-20v-30h20
			v-30h-20v-30h20v-30h-20v-30h20v-30h-20v-30h20v-30h-20v-30h20v-30h-20V91h20V61h-20V30h40V482z M378.432,482H148.431V302.807
			c5.551,20.163,16.228,39.198,32.043,55.012c23.609,23.609,55,36.612,88.389,36.612c17.752,0,34.939-3.676,50.693-10.668
			l58.876,58.876V482z M449.175,449.744c-5.848,5.848-15.362,5.849-21.214,0l-81.317-81.317l21.214-21.214l81.317,81.317
			C455.024,434.379,455.024,443.896,449.175,449.744z"/>
	</g>
</g>
</svg>
